<?xml version="1.0" encoding="UTF-8" standalone="no"?>
<svg
   xmlns:dc="http://purl.org/dc/elements/1.1/"
   xmlns:cc="http://creativecommons.org/ns#"
   xmlns:rdf="http://www.w3.org/1999/02/22-rdf-syntax-ns#"
   xmlns:svg="http://www.w3.org/2000/svg"
   xmlns="http://www.w3.org/2000/svg"
   xmlns:sodipodi="http://sodipodi.sourceforge.net/DTD/sodipodi-0.dtd"
   xmlns:inkscape="http://www.inkscape.org/namespaces/inkscape"
   version="1.1"
   width="45"
   height="45"
   id="svg2"
   inkscape:version="0.48.4 r9939"
   sodipodi:docname="Chess_l45.svg">
  <metadata
     id="metadata10">
    <rdf:RDF>
      <cc:Work
         rdf:about="">
        <dc:format>image/svg+xml</dc:format>
        <dc:type
           rdf:resource="http://purl.org/dc/dcmitype/StillImage" />
        <dc:title></dc:title>
      </cc:Work>
    </rdf:RDF>
  </metadata>
  <defs
     id="defs8" />
  <sodipodi:namedview
     pagecolor="#F0D9B5"
     bordercolor="#666666"
     borderopacity="1"
     objecttolerance="10"
     gridtolerance="10"
     guidetolerance="10"
     inkscape:pageopacity="0"
     inkscape:pageshadow="2"
     inkscape:window-width="640"
     inkscape:window-height="480"
     id="namedview6"
     showgrid="false"
     inkscape:zoom="5.2444444"
     inkscape:cx="22.5"
     inkscape:cy="22.5"
     inkscape:window-x="0"
     inkscape:window-y="0"
     inkscape:window-maximized="0"
     inkscape:current-layer="svg2" />
  <rect
     x="0"
     y="0"
     width="45"
     height="45"
     style="fill: #F0D9B5; stroke:none;"
     id="rect4" />
  <g
     transform="translate(-1.3773789,17.057169)"
     id="g2993">
    <path
       inkscape:connector-curvature="0"
       sodipodi:nodetypes="cccssscccc"
       id="path3351"
       transform="translate(1.3778216,-17.056919)"
       d="M 11,4.03125 C 3.5294233,4.307579 -2.2527669,13.467098 4.875,30.9375 2.7190442,20.869809 11.097817,2.189825 15,32 c 0.319206,-0.483395 -1.96875,5.948069 -1.96875,6 0,1.64551 4.23524,2.96875 9.46875,2.96875 5.23351,0 9.46875,-1.323241 9.46875,-2.96875 0,-0.05193 -2.318593,-6.529791 -1.96875,-6 C 33.902182,2.189825 42.280956,20.869809 40.125,30.9375 50.98636,4.3159342 31.825237,-2.998259 22.5,11 19.29445,6.1880985 14.913159,3.8865063 11,4.03125 z"
       style="fill:#F0D9B5;fill-opacity:1;fill-rule:nonzero;stroke:#F0D9B5;stroke-width:1.5;stroke-linecap:round;stroke-linejoin:round;stroke-miterlimit:4;stroke-opacity:1;stroke-dasharray:none;stroke-dashoffset:0" />
    <path
       transform="matrix(0.7469502,0,0,1.1387357,3.164997,-20.492976)"
       d="m 10.606602,33.686291 c 0,2.343145 -1.8994951,4.24264 -4.2426408,4.24264 -2.3431456,0 -4.2426405,-1.899495 -4.2426405,-4.24264 0,-2.343146 1.8994949,-4.242641 4.2426405,-4.242641 2.3431457,0 4.2426408,1.899495 4.2426408,4.242641 z"
       sodipodi:ry="4.2426405"
       sodipodi:rx="4.2426405"
       sodipodi:cy="33.686291"
       sodipodi:cx="6.3639612"
       id="path3347"
       style="fill:#F0D9B5;fill-opacity:1;fill-rule:nonzero;stroke:#F0D9B5;stroke-width:1.62642467;stroke-linecap:round;stroke-linejoin:round;stroke-miterlimit:4;stroke-opacity:1;stroke-dasharray:none;stroke-dashoffset:0"
       sodipodi:type="arc" />
    <path
       inkscape:transform-center-y="11.051138"
       inkscape:transform-center-x="-15.960116"
       sodipodi:type="arc"
       style="fill:#F0D9B5;fill-opacity:1;fill-rule:nonzero;stroke:#F0D9B5;stroke-width:1.62642467;stroke-linecap:round;stroke-linejoin:round;stroke-miterlimit:4;stroke-opacity:1;stroke-dasharray:none;stroke-dashoffset:0"
       id="path3357"
       sodipodi:cx="6.3639612"
       sodipodi:cy="33.686291"
       sodipodi:rx="4.2426405"
       sodipodi:ry="4.2426405"
       d="m 10.606602,33.686291 c 0,2.343145 -1.8994951,4.24264 -4.2426408,4.24264 -2.3431456,0 -4.2426405,-1.899495 -4.2426405,-4.24264 0,-2.343146 1.8994949,-4.242641 4.2426405,-4.242641 2.3431457,0 4.2426408,1.899495 4.2426408,4.242641 z"
       transform="matrix(-0.7469502,0,0,1.1387357,44.592352,-20.492976)" />
    <path
       inkscape:connector-curvature="0"
       inkscape:transform-center-y="-1.9445437"
       inkscape:transform-center-x="3.7454562"
       sodipodi:nodetypes="cc"
       transform="translate(1.3778216,-17.056919)"
       id="path3363"
       d="m 15,32 c 3.081956,-5.138986 5.957096,-9.150414 7.5,-21"
       style="fill:none;stroke:#F0D9B5;stroke-width:1.5;stroke-linecap:round;stroke-linejoin:round;stroke-miterlimit:4;stroke-opacity:1;stroke-dasharray:none;stroke-dashoffset:0" />
    <path
       inkscape:connector-curvature="0"
       style="fill:none;stroke:#F0D9B5;stroke-width:1.5;stroke-linecap:round;stroke-linejoin:round;stroke-miterlimit:4;stroke-opacity:1;stroke-dasharray:none;stroke-dashoffset:0"
       d="m 31.377822,14.943081 c -3.081956,-5.138986 -5.957096,-9.150414 -7.5,-21"
       id="path3365"
       sodipodi:nodetypes="cc"
       inkscape:transform-center-x="-3.7454562"
       inkscape:transform-center-y="-1.9445437" />
    <path
       inkscape:connector-curvature="0"
       sodipodi:nodetypes="cc"
       transform="translate(1.3778216,-17.056919)"
       id="path3387"
       d="m 15,32 c 5,-2 10,-1.98442 15,0"
       style="fill:none;stroke:#F0D9B5;stroke-width:1.5;stroke-linecap:round;stroke-linejoin:round;stroke-miterlimit:4;stroke-opacity:1;stroke-dasharray:none;stroke-dashoffset:0" />
  </g>
</svg>
